<?xml version="1.0" encoding="UTF-8" standalone="no"?>
<!DOCTYPE svg PUBLIC "-//W3C//DTD SVG 1.1//EN"
 "http://www.w3.org/Graphics/SVG/1.1/DTD/svg11.dtd">
<!-- Generated by graphviz version 2.50.0 (20211204.2007)
 -->
<!-- Title: example Pages: 1 -->
<svg width="554pt" height="508pt"
 viewBox="0.00 0.00 554.00 508.00" xmlns="http://www.w3.org/2000/svg" xmlns:xlink="http://www.w3.org/1999/xlink">
<g id="graph0" class="graph" transform="scale(1 1) rotate(0) translate(4 504)">
<title>example</title>
<polygon fill="white" stroke="transparent" points="-4,4 -4,-504 550,-504 550,4 -4,4"/>
<g id="clust1" class="cluster">
<title>cluster_anchors</title>
<polygon fill="none" stroke="black" points="8,-440 8,-492 276,-492 276,-440 8,-440"/>
</g>
<g id="clust2" class="cluster">
<title>cluster_tree</title>
<polygon fill="none" stroke="black" points="284,-8 284,-492 538,-492 538,-8 284,-8"/>
</g>
<!-- u -->
<g id="node1" class="node">
<title>u</title>
<ellipse fill="white" stroke="black" cx="250" cy="-466" rx="18" ry="18"/>
</g>
<!-- w -->
<g id="node2" class="node">
<title>w</title>
<ellipse fill="white" stroke="black" cx="196" cy="-466" rx="18" ry="18"/>
</g>
<!-- x -->
<g id="node3" class="node">
<title>x</title>
<ellipse fill="white" stroke="black" cx="142" cy="-466" rx="18" ry="18"/>
</g>
<!-- y -->
<g id="node4" class="node">
<title>y</title>
<ellipse fill="white" stroke="black" cx="88" cy="-466" rx="18" ry="18"/>
</g>
<!-- z -->
<g id="node5" class="node">
<title>z</title>
<ellipse fill="white" stroke="black" cx="34" cy="-466" rx="18" ry="18"/>
</g>
<!-- 0 -->
<g id="node6" class="node">
<title>0</title>
<ellipse fill="green" stroke="black" cx="392" cy="-466" rx="18" ry="18"/>
</g>
<!-- 1 -->
<g id="node7" class="node">
<title>1</title>
<ellipse fill="blue" stroke="black" cx="365" cy="-394" rx="18" ry="18"/>
</g>
<!-- 0&#45;&gt;1 -->
<g id="edge1" class="edge">
<title>0&#45;&gt;1</title>
<path fill="none" stroke="black" d="M385.74,-448.76C382.5,-440.37 378.47,-429.93 374.83,-420.5"/>
<polygon fill="black" stroke="black" points="378.09,-419.22 371.23,-411.15 371.56,-421.74 378.09,-419.22"/>
</g>
<!-- 2 -->
<g id="node8" class="node">
<title>2</title>
<ellipse fill="blue" stroke="black" cx="419" cy="-394" rx="18" ry="18"/>
</g>
<!-- 0&#45;&gt;2 -->
<g id="edge2" class="edge">
<title>0&#45;&gt;2</title>
<path fill="none" stroke="black" d="M398.26,-448.76C401.5,-440.37 405.53,-429.93 409.17,-420.5"/>
<polygon fill="black" stroke="black" points="412.44,-421.74 412.77,-411.15 405.91,-419.22 412.44,-421.74"/>
</g>
<!-- 7 -->
<g id="node13" class="node">
<title>7</title>
<ellipse fill="red" stroke="black" cx="311" cy="-322" rx="18" ry="18"/>
<text text-anchor="middle" x="311" y="-318.3" font-family="Times New Roman,serif" font-size="14.00">x</text>
</g>
<!-- 1&#45;&gt;7 -->
<g id="edge7" class="edge">
<title>1&#45;&gt;7</title>
<path fill="none" stroke="black" d="M354.33,-379.17C346.79,-369.39 336.52,-356.08 327.87,-344.87"/>
<polygon fill="black" stroke="black" points="330.53,-342.58 321.65,-336.8 324.98,-346.86 330.53,-342.58"/>
</g>
<!-- 8 -->
<g id="node14" class="node">
<title>8</title>
<ellipse fill="blue" stroke="black" cx="365" cy="-322" rx="18" ry="18"/>
</g>
<!-- 1&#45;&gt;8 -->
<g id="edge8" class="edge">
<title>1&#45;&gt;8</title>
<path fill="none" stroke="black" d="M365,-375.7C365,-367.98 365,-358.71 365,-350.11"/>
<polygon fill="black" stroke="black" points="368.5,-350.1 365,-340.1 361.5,-350.1 368.5,-350.1"/>
</g>
<!-- 3 -->
<g id="node9" class="node">
<title>3</title>
<ellipse fill="red" stroke="black" cx="419" cy="-322" rx="18" ry="18"/>
<text text-anchor="middle" x="419" y="-318.3" font-family="Times New Roman,serif" font-size="14.00">x</text>
</g>
<!-- 2&#45;&gt;3 -->
<g id="edge3" class="edge">
<title>2&#45;&gt;3</title>
<path fill="none" stroke="black" d="M419,-375.7C419,-367.98 419,-358.71 419,-350.11"/>
<polygon fill="black" stroke="black" points="422.5,-350.1 419,-340.1 415.5,-350.1 422.5,-350.1"/>
</g>
<!-- 4 -->
<g id="node10" class="node">
<title>4</title>
<ellipse fill="green" stroke="black" cx="473" cy="-322" rx="18" ry="18"/>
</g>
<!-- 2&#45;&gt;4 -->
<g id="edge4" class="edge">
<title>2&#45;&gt;4</title>
<path fill="none" stroke="black" d="M429.67,-379.17C437.21,-369.39 447.48,-356.08 456.13,-344.87"/>
<polygon fill="black" stroke="black" points="459.02,-346.86 462.35,-336.8 453.47,-342.58 459.02,-346.86"/>
</g>
<!-- 5 -->
<g id="node11" class="node">
<title>5</title>
<ellipse fill="white" stroke="black" cx="458" cy="-250" rx="18" ry="18"/>
<text text-anchor="middle" x="458" y="-246.3" font-family="Times New Roman,serif" font-size="14.00">w</text>
</g>
<!-- 4&#45;&gt;5 -->
<g id="edge5" class="edge">
<title>4&#45;&gt;5</title>
<path fill="none" stroke="black" d="M469.37,-304.05C467.67,-296.14 465.62,-286.54 463.72,-277.69"/>
<polygon fill="black" stroke="black" points="467.12,-276.83 461.6,-267.79 460.27,-278.3 467.12,-276.83"/>
</g>
<!-- 6 -->
<g id="node12" class="node">
<title>6</title>
<ellipse fill="yellow" stroke="black" cx="512" cy="-250" rx="18" ry="18"/>
</g>
<!-- 4&#45;&gt;6 -->
<g id="edge6" class="edge">
<title>4&#45;&gt;6</title>
<path fill="none" stroke="black" d="M481.46,-305.81C486.47,-296.82 492.93,-285.23 498.61,-275.03"/>
<polygon fill="black" stroke="black" points="501.74,-276.6 503.55,-266.16 495.63,-273.19 501.74,-276.6"/>
</g>
<!-- 6&#45;&gt;3 -->
<g id="edge19" class="edge">
<title>6&#45;&gt;3</title>
<path fill="none" stroke="black" d="M498.05,-261.5C483.01,-272.82 458.85,-291 441.2,-304.29"/>
<polygon fill="black" stroke="black" points="439.01,-301.56 433.12,-310.37 443.22,-307.15 439.01,-301.56"/>
</g>
<!-- 9 -->
<g id="node15" class="node">
<title>9</title>
<ellipse fill="red" stroke="black" cx="350" cy="-250" rx="18" ry="18"/>
<text text-anchor="middle" x="350" y="-246.3" font-family="Times New Roman,serif" font-size="14.00">y</text>
</g>
<!-- 8&#45;&gt;9 -->
<g id="edge9" class="edge">
<title>8&#45;&gt;9</title>
<path fill="none" stroke="black" d="M361.37,-304.05C359.67,-296.14 357.62,-286.54 355.72,-277.69"/>
<polygon fill="black" stroke="black" points="359.12,-276.83 353.6,-267.79 352.27,-278.3 359.12,-276.83"/>
</g>
<!-- 10 -->
<g id="node16" class="node">
<title>10</title>
<ellipse fill="green" stroke="black" cx="404" cy="-250" rx="18" ry="18"/>
</g>
<!-- 8&#45;&gt;10 -->
<g id="edge10" class="edge">
<title>8&#45;&gt;10</title>
<path fill="none" stroke="black" d="M373.46,-305.81C378.47,-296.82 384.93,-285.23 390.61,-275.03"/>
<polygon fill="black" stroke="black" points="393.74,-276.6 395.55,-266.16 387.63,-273.19 393.74,-276.6"/>
</g>
<!-- 11 -->
<g id="node17" class="node">
<title>11</title>
<ellipse fill="green" stroke="black" cx="399" cy="-178" rx="18" ry="18"/>
</g>
<!-- 10&#45;&gt;11 -->
<g id="edge11" class="edge">
<title>10&#45;&gt;11</title>
<path fill="none" stroke="black" d="M402.76,-231.7C402.21,-223.98 401.55,-214.71 400.94,-206.11"/>
<polygon fill="black" stroke="black" points="404.43,-205.83 400.22,-196.1 397.44,-206.33 404.43,-205.83"/>
</g>
<!-- 12 -->
<g id="node18" class="node">
<title>12</title>
<ellipse fill="blue" stroke="black" cx="453" cy="-178" rx="18" ry="18"/>
</g>
<!-- 10&#45;&gt;12 -->
<g id="edge12" class="edge">
<title>10&#45;&gt;12</title>
<path fill="none" stroke="black" d="M413.92,-234.83C420.62,-225.25 429.63,-212.39 437.3,-201.43"/>
<polygon fill="black" stroke="black" points="440.23,-203.34 443.1,-193.14 434.5,-199.33 440.23,-203.34"/>
</g>
<!-- 13 -->
<g id="node19" class="node">
<title>13</title>
<ellipse fill="white" stroke="black" cx="345" cy="-106" rx="18" ry="18"/>
<text text-anchor="middle" x="345" y="-102.3" font-family="Times New Roman,serif" font-size="14.00">z</text>
</g>
<!-- 11&#45;&gt;13 -->
<g id="edge13" class="edge">
<title>11&#45;&gt;13</title>
<path fill="none" stroke="black" d="M388.33,-163.17C380.79,-153.39 370.52,-140.08 361.87,-128.87"/>
<polygon fill="black" stroke="black" points="364.53,-126.58 355.65,-120.8 358.98,-130.86 364.53,-126.58"/>
</g>
<!-- 14 -->
<g id="node20" class="node">
<title>14</title>
<ellipse fill="yellow" stroke="black" cx="399" cy="-106" rx="18" ry="18"/>
</g>
<!-- 11&#45;&gt;14 -->
<g id="edge14" class="edge">
<title>11&#45;&gt;14</title>
<path fill="none" stroke="black" d="M399,-159.7C399,-151.98 399,-142.71 399,-134.11"/>
<polygon fill="black" stroke="black" points="402.5,-134.1 399,-124.1 395.5,-134.1 402.5,-134.1"/>
</g>
<!-- 15 -->
<g id="node21" class="node">
<title>15</title>
<ellipse fill="red" stroke="black" cx="453" cy="-106" rx="18" ry="18"/>
<text text-anchor="middle" x="453" y="-102.3" font-family="Times New Roman,serif" font-size="14.00">u</text>
</g>
<!-- 12&#45;&gt;15 -->
<g id="edge15" class="edge">
<title>12&#45;&gt;15</title>
<path fill="none" stroke="black" d="M453,-159.7C453,-151.98 453,-142.71 453,-134.11"/>
<polygon fill="black" stroke="black" points="456.5,-134.1 453,-124.1 449.5,-134.1 456.5,-134.1"/>
</g>
<!-- 16 -->
<g id="node22" class="node">
<title>16</title>
<ellipse fill="green" stroke="black" cx="507" cy="-106" rx="18" ry="18"/>
</g>
<!-- 12&#45;&gt;16 -->
<g id="edge16" class="edge">
<title>12&#45;&gt;16</title>
<path fill="none" stroke="black" d="M463.67,-163.17C471.21,-153.39 481.48,-140.08 490.13,-128.87"/>
<polygon fill="black" stroke="black" points="493.02,-130.86 496.35,-120.8 487.47,-126.58 493.02,-130.86"/>
</g>
<!-- 14&#45;&gt;7 -->
<g id="edge20" class="edge">
<title>14&#45;&gt;7</title>
<path fill="none" stroke="black" d="M388.05,-120.65C371.03,-142.64 338.59,-187.95 323,-232 315.95,-251.93 313,-275.73 311.79,-293.69"/>
<polygon fill="black" stroke="black" points="308.28,-293.61 311.24,-303.78 315.27,-293.98 308.28,-293.61"/>
</g>
<!-- 17 -->
<g id="node23" class="node">
<title>17</title>
<ellipse fill="yellow" stroke="black" cx="455" cy="-34" rx="18" ry="18"/>
</g>
<!-- 16&#45;&gt;17 -->
<g id="edge17" class="edge">
<title>16&#45;&gt;17</title>
<path fill="none" stroke="black" d="M496.73,-91.17C489.46,-81.39 479.57,-68.08 471.25,-56.87"/>
<polygon fill="black" stroke="black" points="474.03,-54.74 465.25,-48.8 468.41,-58.92 474.03,-54.74"/>
</g>
<!-- 18 -->
<g id="node24" class="node">
<title>18</title>
<ellipse fill="yellow" stroke="black" cx="509" cy="-34" rx="18" ry="18"/>
</g>
<!-- 16&#45;&gt;18 -->
<g id="edge18" class="edge">
<title>16&#45;&gt;18</title>
<path fill="none" stroke="black" d="M507.49,-87.7C507.71,-79.98 507.98,-70.71 508.23,-62.11"/>
<polygon fill="black" stroke="black" points="511.72,-62.2 508.51,-52.1 504.73,-62 511.72,-62.2"/>
</g>
<!-- 17&#45;&gt;7 -->
<g id="edge21" class="edge">
<title>17&#45;&gt;7</title>
<path fill="none" stroke="black" d="M437,-35.95C406.6,-38.63 345.7,-48.86 318,-88 273.65,-150.67 291.19,-248.42 303.25,-294.84"/>
<polygon fill="black" stroke="black" points="299.93,-295.98 305.93,-304.71 306.68,-294.14 299.93,-295.98"/>
</g>
<!-- 18&#45;&gt;15 -->
<g id="edge22" class="edge">
<title>18&#45;&gt;15</title>
<path fill="none" stroke="black" d="M498.24,-48.46C490.26,-58.42 479.24,-72.2 470.08,-83.66"/>
<polygon fill="black" stroke="black" points="467.31,-81.51 463.8,-91.5 472.78,-85.88 467.31,-81.51"/>
</g>
</g>
</svg>
