<?xml version="1.0" encoding="UTF-8" standalone="no"?>
<!DOCTYPE svg PUBLIC "-//W3C//DTD SVG 1.1//EN"
 "http://www.w3.org/Graphics/SVG/1.1/DTD/svg11.dtd">
<!-- Generated by graphviz version 2.50.0 (20211204.2007)
 -->
<!-- Title: example Pages: 1 -->
<svg width="357pt" height="508pt"
 viewBox="0.00 0.00 357.18 508.00" xmlns="http://www.w3.org/2000/svg" xmlns:xlink="http://www.w3.org/1999/xlink">
<g id="graph0" class="graph" transform="scale(1 1) rotate(0) translate(4 504)">
<title>example</title>
<polygon fill="white" stroke="transparent" points="-4,4 -4,-504 353.18,-504 353.18,4 -4,4"/>
<g id="clust1" class="cluster">
<title>cluster_anchors</title>
<polygon fill="none" stroke="black" stroke-width="0" points="270,-80 270,-420 322,-420 322,-80 270,-80"/>
</g>
<g id="clust3" class="cluster">
<title>cluster_tree</title>
<polygon fill="none" stroke="black" stroke-width="0" points="8,-8 8,-492 262,-492 262,-8 8,-8"/>
</g>
<!-- u -->
<g id="node1" class="node">
<title>u</title>
<ellipse fill="white" stroke="black" cx="296" cy="-394" rx="18" ry="18"/>
</g>
<!-- w -->
<g id="node2" class="node">
<title>w</title>
<ellipse fill="white" stroke="black" cx="296" cy="-322" rx="18" ry="18"/>
</g>
<!-- u&#45;&gt;w -->
<!-- x -->
<g id="node3" class="node">
<title>x</title>
<ellipse fill="white" stroke="black" cx="296" cy="-250" rx="18" ry="18"/>
</g>
<!-- w&#45;&gt;x -->
<!-- y -->
<g id="node4" class="node">
<title>y</title>
<ellipse fill="white" stroke="black" cx="296" cy="-178" rx="18" ry="18"/>
</g>
<!-- x&#45;&gt;y -->
<!-- z -->
<g id="node5" class="node">
<title>z</title>
<ellipse fill="white" stroke="black" cx="296" cy="-106" rx="18" ry="18"/>
</g>
<!-- y&#45;&gt;z -->
<!-- 0 -->
<g id="node6" class="node">
<title>0</title>
<ellipse fill="green" stroke="black" cx="182" cy="-466" rx="18" ry="18"/>
</g>
<!-- 0&#45;&gt;u -->
<!-- 1 -->
<g id="node7" class="node">
<title>1</title>
<ellipse fill="blue" stroke="black" cx="128" cy="-394" rx="18" ry="18"/>
</g>
<!-- 0&#45;&gt;1 -->
<g id="edge5" class="edge">
<title>0&#45;&gt;1</title>
<path fill="none" stroke="black" d="M171.33,-451.17C162.9,-440.24 151.06,-424.9 141.89,-413.01"/>
<polygon fill="black" stroke="black" points="143.09,-411.69 138.65,-408.8 140.31,-413.83 143.09,-411.69"/>
</g>
<!-- 2 -->
<g id="node8" class="node">
<title>2</title>
<ellipse fill="blue" stroke="black" cx="182" cy="-394" rx="18" ry="18"/>
</g>
<!-- 0&#45;&gt;2 -->
<g id="edge6" class="edge">
<title>0&#45;&gt;2</title>
<path fill="none" stroke="black" d="M182,-447.7C182,-438.46 182,-426.98 182,-417.11"/>
<polygon fill="black" stroke="black" points="183.75,-417.1 182,-412.1 180.25,-417.1 183.75,-417.1"/>
</g>
<!-- 7 -->
<g id="node13" class="node">
<title>7</title>
<ellipse fill="red" stroke="black" cx="74" cy="-322" rx="18" ry="18"/>
</g>
<!-- 1&#45;&gt;7 -->
<g id="edge11" class="edge">
<title>1&#45;&gt;7</title>
<path fill="none" stroke="black" d="M117.33,-379.17C108.9,-368.24 97.06,-352.9 87.89,-341.01"/>
<polygon fill="black" stroke="black" points="89.09,-339.69 84.65,-336.8 86.31,-341.83 89.09,-339.69"/>
</g>
<!-- 8 -->
<g id="node14" class="node">
<title>8</title>
<ellipse fill="blue" stroke="black" cx="128" cy="-322" rx="18" ry="18"/>
</g>
<!-- 1&#45;&gt;8 -->
<g id="edge12" class="edge">
<title>1&#45;&gt;8</title>
<path fill="none" stroke="black" d="M128,-375.7C128,-366.46 128,-354.98 128,-345.11"/>
<polygon fill="black" stroke="black" points="129.75,-345.1 128,-340.1 126.25,-345.1 129.75,-345.1"/>
</g>
<!-- 3 -->
<g id="node9" class="node">
<title>3</title>
<ellipse fill="red" stroke="black" cx="182" cy="-322" rx="18" ry="18"/>
</g>
<!-- 2&#45;&gt;3 -->
<g id="edge7" class="edge">
<title>2&#45;&gt;3</title>
<path fill="none" stroke="black" d="M182,-375.7C182,-366.46 182,-354.98 182,-345.11"/>
<polygon fill="black" stroke="black" points="183.75,-345.1 182,-340.1 180.25,-345.1 183.75,-345.1"/>
</g>
<!-- 4 -->
<g id="node10" class="node">
<title>4</title>
<ellipse fill="green" stroke="black" cx="236" cy="-322" rx="18" ry="18"/>
</g>
<!-- 2&#45;&gt;4 -->
<g id="edge8" class="edge">
<title>2&#45;&gt;4</title>
<path fill="none" stroke="black" d="M192.67,-379.17C201.1,-368.24 212.94,-352.9 222.11,-341.01"/>
<polygon fill="black" stroke="black" points="223.69,-341.83 225.35,-336.8 220.91,-339.69 223.69,-341.83"/>
</g>
<!-- 3&#45;&gt;x -->
<g id="edge28" class="edge">
<title>3&#45;&gt;x</title>
<path fill="none" stroke="firebrick" d="M196.83,-311.61C200.78,-309.12 205.04,-306.45 209,-304 234.11,-288.45 263.48,-270.63 280.87,-260.12"/>
</g>
<!-- 5 -->
<g id="node11" class="node">
<title>5</title>
<ellipse fill="white" stroke="black" cx="182" cy="-250" rx="18" ry="18"/>
</g>
<!-- 4&#45;&gt;5 -->
<g id="edge9" class="edge">
<title>4&#45;&gt;5</title>
<path fill="none" stroke="black" d="M225.33,-307.17C216.9,-296.24 205.06,-280.9 195.89,-269.01"/>
<polygon fill="black" stroke="black" points="197.09,-267.69 192.65,-264.8 194.31,-269.83 197.09,-267.69"/>
</g>
<!-- 6 -->
<g id="node12" class="node">
<title>6</title>
<ellipse fill="yellow" stroke="black" cx="236" cy="-250" rx="18" ry="18"/>
</g>
<!-- 4&#45;&gt;6 -->
<g id="edge10" class="edge">
<title>4&#45;&gt;6</title>
<path fill="none" stroke="black" d="M236,-303.7C236,-294.46 236,-282.98 236,-273.11"/>
<polygon fill="black" stroke="black" points="237.75,-273.1 236,-268.1 234.25,-273.1 237.75,-273.1"/>
</g>
<!-- 5&#45;&gt;w -->
<g id="edge32" class="edge">
<title>5&#45;&gt;w</title>
<path fill="none" stroke="grey" d="M196.83,-260.39C200.78,-262.88 205.04,-265.55 209,-268 234.11,-283.55 263.48,-301.37 280.87,-311.88"/>
</g>
<!-- 6&#45;&gt;3 -->
<g id="edge24" class="edge">
<title>6&#45;&gt;3</title>
<path fill="none" stroke="#ffb90f" d="M225.35,-264.8C215.89,-277.06 202.14,-294.9 192.67,-307.17"/>
</g>
<!-- 7&#45;&gt;x -->
<g id="edge29" class="edge">
<title>7&#45;&gt;x</title>
<path fill="none" stroke="firebrick" d="M88.35,-310.68C92.31,-308.2 96.69,-305.76 101,-304 170.47,-275.58 195.89,-294.8 266,-268 271.14,-266.03 276.47,-263.28 281.17,-260.57"/>
</g>
<!-- 9 -->
<g id="node15" class="node">
<title>9</title>
<ellipse fill="red" stroke="black" cx="74" cy="-250" rx="18" ry="18"/>
</g>
<!-- 8&#45;&gt;9 -->
<g id="edge13" class="edge">
<title>8&#45;&gt;9</title>
<path fill="none" stroke="black" d="M117.33,-307.17C108.9,-296.24 97.06,-280.9 87.89,-269.01"/>
<polygon fill="black" stroke="black" points="89.09,-267.69 84.65,-264.8 86.31,-269.83 89.09,-267.69"/>
</g>
<!-- 10 -->
<g id="node16" class="node">
<title>10</title>
<ellipse fill="green" stroke="black" cx="128" cy="-250" rx="18" ry="18"/>
</g>
<!-- 8&#45;&gt;10 -->
<g id="edge14" class="edge">
<title>8&#45;&gt;10</title>
<path fill="none" stroke="black" d="M128,-303.7C128,-294.46 128,-282.98 128,-273.11"/>
<polygon fill="black" stroke="black" points="129.75,-273.1 128,-268.1 126.25,-273.1 129.75,-273.1"/>
</g>
<!-- 9&#45;&gt;y -->
<g id="edge30" class="edge">
<title>9&#45;&gt;y</title>
<path fill="none" stroke="firebrick" d="M88.35,-238.68C92.31,-236.2 96.69,-233.76 101,-232 170.47,-203.58 195.89,-222.8 266,-196 271.14,-194.03 276.47,-191.28 281.17,-188.57"/>
</g>
<!-- 11 -->
<g id="node17" class="node">
<title>11</title>
<ellipse fill="green" stroke="black" cx="123" cy="-178" rx="18" ry="18"/>
</g>
<!-- 10&#45;&gt;11 -->
<g id="edge15" class="edge">
<title>10&#45;&gt;11</title>
<path fill="none" stroke="black" d="M126.76,-231.7C126.1,-222.46 125.28,-210.98 124.58,-201.11"/>
<polygon fill="black" stroke="black" points="126.32,-200.97 124.22,-196.1 122.83,-201.22 126.32,-200.97"/>
</g>
<!-- 12 -->
<g id="node18" class="node">
<title>12</title>
<ellipse fill="blue" stroke="black" cx="177" cy="-178" rx="18" ry="18"/>
</g>
<!-- 10&#45;&gt;12 -->
<g id="edge16" class="edge">
<title>10&#45;&gt;12</title>
<path fill="none" stroke="black" d="M137.92,-234.83C145.49,-224.02 155.98,-209.03 164.19,-197.3"/>
<polygon fill="black" stroke="black" points="165.67,-198.24 167.1,-193.14 162.8,-196.24 165.67,-198.24"/>
</g>
<!-- 13 -->
<g id="node19" class="node">
<title>13</title>
<ellipse fill="white" stroke="black" cx="69" cy="-106" rx="18" ry="18"/>
</g>
<!-- 11&#45;&gt;13 -->
<g id="edge17" class="edge">
<title>11&#45;&gt;13</title>
<path fill="none" stroke="black" d="M112.33,-163.17C103.9,-152.24 92.06,-136.9 82.89,-125.01"/>
<polygon fill="black" stroke="black" points="84.09,-123.69 79.65,-120.8 81.31,-125.83 84.09,-123.69"/>
</g>
<!-- 14 -->
<g id="node20" class="node">
<title>14</title>
<ellipse fill="yellow" stroke="black" cx="123" cy="-106" rx="18" ry="18"/>
</g>
<!-- 11&#45;&gt;14 -->
<g id="edge18" class="edge">
<title>11&#45;&gt;14</title>
<path fill="none" stroke="black" d="M123,-159.7C123,-150.46 123,-138.98 123,-129.11"/>
<polygon fill="black" stroke="black" points="124.75,-129.1 123,-124.1 121.25,-129.1 124.75,-129.1"/>
</g>
<!-- 15 -->
<g id="node21" class="node">
<title>15</title>
<ellipse fill="red" stroke="black" cx="177" cy="-106" rx="18" ry="18"/>
</g>
<!-- 12&#45;&gt;15 -->
<g id="edge19" class="edge">
<title>12&#45;&gt;15</title>
<path fill="none" stroke="black" d="M177,-159.7C177,-150.46 177,-138.98 177,-129.11"/>
<polygon fill="black" stroke="black" points="178.75,-129.1 177,-124.1 175.25,-129.1 178.75,-129.1"/>
</g>
<!-- 16 -->
<g id="node22" class="node">
<title>16</title>
<ellipse fill="green" stroke="black" cx="231" cy="-106" rx="18" ry="18"/>
</g>
<!-- 12&#45;&gt;16 -->
<g id="edge20" class="edge">
<title>12&#45;&gt;16</title>
<path fill="none" stroke="black" d="M187.67,-163.17C196.1,-152.24 207.94,-136.9 217.11,-125.01"/>
<polygon fill="black" stroke="black" points="218.69,-125.83 220.35,-120.8 215.91,-123.69 218.69,-125.83"/>
</g>
<!-- 13&#45;&gt;z -->
<g id="edge33" class="edge">
<title>13&#45;&gt;z</title>
<path fill="none" stroke="grey" d="M79.46,-121.12C85.83,-128.95 94.71,-137.74 105,-142 136.21,-154.93 225.54,-154.3 257,-142 268.16,-137.64 278.04,-128.42 285.06,-120.41"/>
</g>
<!-- 14&#45;&gt;7 -->
<g id="edge25" class="edge">
<title>14&#45;&gt;7</title>
<path fill="none" stroke="#ffb90f" d="M111.63,-120.07C93.72,-141.62 59.67,-186.76 47,-232 42.68,-247.41 43.27,-252.44 47,-268 50.33,-281.86 57.91,-296.18 64.2,-306.43"/>
</g>
<!-- 15&#45;&gt;u -->
<g id="edge31" class="edge">
<title>15&#45;&gt;u</title>
<path fill="none" stroke="firebrick" d="M191.45,-117.1C195.4,-119.58 199.77,-122.07 204,-124 254.28,-146.93 290.07,-115.63 323,-160 370.68,-224.24 341.67,-262.21 323,-340 319.67,-353.86 312.09,-368.18 305.8,-378.43"/>
</g>
<!-- 17 -->
<g id="node23" class="node">
<title>17</title>
<ellipse fill="yellow" stroke="black" cx="179" cy="-34" rx="18" ry="18"/>
</g>
<!-- 16&#45;&gt;17 -->
<g id="edge21" class="edge">
<title>16&#45;&gt;17</title>
<path fill="none" stroke="black" d="M220.73,-91.17C212.61,-80.24 201.21,-64.9 192.38,-53.01"/>
<polygon fill="black" stroke="black" points="193.64,-51.77 189.25,-48.8 190.83,-53.86 193.64,-51.77"/>
</g>
<!-- 18 -->
<g id="node24" class="node">
<title>18</title>
<ellipse fill="yellow" stroke="black" cx="233" cy="-34" rx="18" ry="18"/>
</g>
<!-- 16&#45;&gt;18 -->
<g id="edge22" class="edge">
<title>16&#45;&gt;18</title>
<path fill="none" stroke="black" d="M231.49,-87.7C231.76,-78.46 232.09,-66.98 232.37,-57.11"/>
<polygon fill="black" stroke="black" points="234.12,-57.15 232.51,-52.1 230.62,-57.05 234.12,-57.15"/>
</g>
<!-- 17&#45;&gt;7 -->
<g id="edge26" class="edge">
<title>17&#45;&gt;7</title>
<path fill="none" stroke="#ffb90f" d="M160.98,-34.77C130.55,-35.48 69.6,-41.88 42,-80 -7.02,-147.7 26.08,-187.07 47,-268 50.57,-281.8 58.13,-296.12 64.35,-306.39"/>
</g>
<!-- 18&#45;&gt;15 -->
<g id="edge27" class="edge">
<title>18&#45;&gt;15</title>
<path fill="none" stroke="#ffb90f" d="M222.24,-48.46C212.33,-60.84 197.71,-79.11 187.8,-91.5"/>
</g>
</g>
</svg>
