<?xml version="1.0" encoding="UTF-8" standalone="no"?>
<!DOCTYPE svg PUBLIC "-//W3C//DTD SVG 1.1//EN"
 "http://www.w3.org/Graphics/SVG/1.1/DTD/svg11.dtd">
<!-- Generated by graphviz version 2.50.0 (20211204.2007)
 -->
<!-- Pages: 1 -->
<svg width="323pt" height="548pt"
 viewBox="0.00 0.00 323.01 548.00" xmlns="http://www.w3.org/2000/svg" xmlns:xlink="http://www.w3.org/1999/xlink">
<g id="graph0" class="graph" transform="scale(1 1) rotate(0) translate(4 544)">
<polygon fill="white" stroke="transparent" points="-4,4 -4,-544 319.01,-544 319.01,4 -4,4"/>
<!-- x -->
<g id="node1" class="node">
<title>x</title>
<ellipse fill="none" stroke="black" cx="121" cy="-522" rx="18" ry="18"/>
</g>
<!-- 0 -->
<g id="node2" class="node">
<title>0</title>
<ellipse fill="none" stroke="black" cx="121" cy="-450" rx="18" ry="18"/>
</g>
<!-- x&#45;&gt;0 -->
<g id="edge1" class="edge">
<title>x&#45;&gt;0</title>
<path fill="none" stroke="black" d="M121,-503.7C121,-495.98 121,-486.71 121,-478.11"/>
<polygon fill="black" stroke="black" points="124.5,-478.1 121,-468.1 117.5,-478.1 124.5,-478.1"/>
</g>
<!-- 1 -->
<g id="node3" class="node">
<title>1</title>
<ellipse fill="none" stroke="black" cx="108" cy="-378" rx="18" ry="18"/>
</g>
<!-- 0&#45;&gt;1 -->
<g id="edge2" class="edge">
<title>0&#45;&gt;1</title>
<path fill="none" stroke="black" d="M117.85,-432.05C116.38,-424.14 114.6,-414.54 112.96,-405.69"/>
<polygon fill="black" stroke="black" points="116.38,-404.98 111.12,-395.79 109.5,-406.26 116.38,-404.98"/>
</g>
<!-- 2 -->
<g id="node4" class="node">
<title>2</title>
<ellipse fill="none" stroke="black" cx="162" cy="-378" rx="18" ry="18"/>
</g>
<!-- 0&#45;&gt;2 -->
<g id="edge3" class="edge">
<title>0&#45;&gt;2</title>
<path fill="none" stroke="black" d="M129.69,-434.15C135.08,-424.97 142.1,-412.97 148.23,-402.51"/>
<polygon fill="black" stroke="black" points="151.28,-404.22 153.32,-393.82 145.24,-400.68 151.28,-404.22"/>
</g>
<!-- 7 -->
<g id="node5" class="node">
<title>7</title>
<ellipse fill="none" stroke="black" cx="54" cy="-306" rx="18" ry="18"/>
</g>
<!-- 1&#45;&gt;7 -->
<g id="edge8" class="edge">
<title>1&#45;&gt;7</title>
<path fill="none" stroke="black" d="M97.33,-363.17C89.79,-353.39 79.52,-340.08 70.87,-328.87"/>
<polygon fill="black" stroke="black" points="73.52,-326.58 64.65,-320.8 67.98,-330.86 73.52,-326.58"/>
</g>
<!-- 8 -->
<g id="node6" class="node">
<title>8</title>
<ellipse fill="none" stroke="black" cx="108" cy="-306" rx="18" ry="18"/>
</g>
<!-- 1&#45;&gt;8 -->
<g id="edge9" class="edge">
<title>1&#45;&gt;8</title>
<path fill="none" stroke="black" d="M108,-359.7C108,-351.98 108,-342.71 108,-334.11"/>
<polygon fill="black" stroke="black" points="111.5,-334.1 108,-324.1 104.5,-334.1 111.5,-334.1"/>
</g>
<!-- 3 -->
<g id="node7" class="node">
<title>3</title>
<ellipse fill="none" stroke="black" cx="162" cy="-306" rx="18" ry="18"/>
</g>
<!-- 2&#45;&gt;3 -->
<g id="edge4" class="edge">
<title>2&#45;&gt;3</title>
<path fill="none" stroke="black" d="M162,-359.7C162,-351.98 162,-342.71 162,-334.11"/>
<polygon fill="black" stroke="black" points="165.5,-334.1 162,-324.1 158.5,-334.1 165.5,-334.1"/>
</g>
<!-- 4 -->
<g id="node8" class="node">
<title>4</title>
<ellipse fill="none" stroke="black" cx="216" cy="-306" rx="18" ry="18"/>
</g>
<!-- 2&#45;&gt;4 -->
<g id="edge5" class="edge">
<title>2&#45;&gt;4</title>
<path fill="none" stroke="black" d="M172.67,-363.17C180.21,-353.39 190.48,-340.08 199.13,-328.87"/>
<polygon fill="black" stroke="black" points="202.02,-330.86 205.35,-320.8 196.47,-326.58 202.02,-330.86"/>
</g>
<!-- 9 -->
<g id="node9" class="node">
<title>9</title>
<ellipse fill="none" stroke="black" cx="102" cy="-234" rx="18" ry="18"/>
</g>
<!-- 8&#45;&gt;9 -->
<g id="edge10" class="edge">
<title>8&#45;&gt;9</title>
<path fill="none" stroke="black" d="M106.55,-288.05C105.89,-280.35 105.09,-271.03 104.34,-262.36"/>
<polygon fill="black" stroke="black" points="107.82,-261.94 103.48,-252.28 100.85,-262.54 107.82,-261.94"/>
</g>
<!-- 10 -->
<g id="node10" class="node">
<title>10</title>
<ellipse fill="none" stroke="black" cx="156" cy="-234" rx="18" ry="18"/>
</g>
<!-- 8&#45;&gt;10 -->
<g id="edge11" class="edge">
<title>8&#45;&gt;10</title>
<path fill="none" stroke="black" d="M117.71,-290.83C124.13,-281.47 132.7,-268.98 140.1,-258.19"/>
<polygon fill="black" stroke="black" points="143.2,-259.85 145.97,-249.63 137.43,-255.89 143.2,-259.85"/>
</g>
<!-- 5 -->
<g id="node11" class="node">
<title>5</title>
<ellipse fill="none" stroke="black" cx="214" cy="-234" rx="18" ry="18"/>
</g>
<!-- 4&#45;&gt;5 -->
<g id="edge6" class="edge">
<title>4&#45;&gt;5</title>
<path fill="none" stroke="black" d="M215.5,-287.7C215.28,-279.98 215.02,-270.71 214.77,-262.11"/>
<polygon fill="black" stroke="black" points="218.27,-262 214.49,-252.1 211.27,-262.2 218.27,-262"/>
</g>
<!-- 6 -->
<g id="node12" class="node">
<title>6</title>
<ellipse fill="none" stroke="black" cx="268" cy="-234" rx="18" ry="18"/>
</g>
<!-- 4&#45;&gt;6 -->
<g id="edge7" class="edge">
<title>4&#45;&gt;6</title>
<path fill="none" stroke="black" d="M226.27,-291.17C233.54,-281.39 243.43,-268.08 251.75,-256.87"/>
<polygon fill="black" stroke="black" points="254.59,-258.92 257.75,-248.8 248.97,-254.74 254.59,-258.92"/>
</g>
<!-- 11 -->
<g id="node13" class="node">
<title>11</title>
<ellipse fill="none" stroke="black" cx="102" cy="-162" rx="18" ry="18"/>
</g>
<!-- 10&#45;&gt;11 -->
<g id="edge12" class="edge">
<title>10&#45;&gt;11</title>
<path fill="none" stroke="black" d="M145.33,-219.17C137.79,-209.39 127.52,-196.08 118.87,-184.87"/>
<polygon fill="black" stroke="black" points="121.52,-182.58 112.65,-176.8 115.98,-186.86 121.52,-182.58"/>
</g>
<!-- 12 -->
<g id="node14" class="node">
<title>12</title>
<ellipse fill="none" stroke="black" cx="156" cy="-162" rx="18" ry="18"/>
</g>
<!-- 10&#45;&gt;12 -->
<g id="edge13" class="edge">
<title>10&#45;&gt;12</title>
<path fill="none" stroke="black" d="M156,-215.7C156,-207.98 156,-198.71 156,-190.11"/>
<polygon fill="black" stroke="black" points="159.5,-190.1 156,-180.1 152.5,-190.1 159.5,-190.1"/>
</g>
<!-- 5&#45;&gt;x -->
<g id="edge20" class="edge">
<title>5&#45;&gt;x</title>
<path fill="none" stroke="black" d="M224.23,-249.02C231.03,-259.26 239.36,-273.77 243,-288 246.96,-303.5 247.38,-308.61 243,-324 222.7,-395.34 168.36,-466.11 139.54,-500.12"/>
<polygon fill="black" stroke="black" points="136.67,-498.09 132.8,-507.95 141.97,-502.66 136.67,-498.09"/>
</g>
<!-- 6&#45;&gt;3 -->
<g id="edge22" class="edge">
<title>6&#45;&gt;3</title>
<path fill="none" stroke="black" d="M253.39,-244.65C235.8,-256.26 206.06,-275.9 185.3,-289.61"/>
<polygon fill="black" stroke="black" points="183.15,-286.84 176.74,-295.27 187.01,-292.68 183.15,-286.84"/>
</g>
<!-- 13 -->
<g id="node15" class="node">
<title>13</title>
<ellipse fill="none" stroke="black" cx="48" cy="-90" rx="18" ry="18"/>
</g>
<!-- 11&#45;&gt;13 -->
<g id="edge14" class="edge">
<title>11&#45;&gt;13</title>
<path fill="none" stroke="black" d="M91.33,-147.17C83.79,-137.39 73.52,-124.08 64.87,-112.87"/>
<polygon fill="black" stroke="black" points="67.52,-110.58 58.65,-104.8 61.98,-114.86 67.52,-110.58"/>
</g>
<!-- 14 -->
<g id="node16" class="node">
<title>14</title>
<ellipse fill="none" stroke="black" cx="102" cy="-90" rx="18" ry="18"/>
</g>
<!-- 11&#45;&gt;14 -->
<g id="edge15" class="edge">
<title>11&#45;&gt;14</title>
<path fill="none" stroke="black" d="M102,-143.7C102,-135.98 102,-126.71 102,-118.11"/>
<polygon fill="black" stroke="black" points="105.5,-118.1 102,-108.1 98.5,-118.1 105.5,-118.1"/>
</g>
<!-- 15 -->
<g id="node17" class="node">
<title>15</title>
<ellipse fill="none" stroke="black" cx="156" cy="-90" rx="18" ry="18"/>
</g>
<!-- 12&#45;&gt;15 -->
<g id="edge16" class="edge">
<title>12&#45;&gt;15</title>
<path fill="none" stroke="black" d="M156,-143.7C156,-135.98 156,-126.71 156,-118.11"/>
<polygon fill="black" stroke="black" points="159.5,-118.1 156,-108.1 152.5,-118.1 159.5,-118.1"/>
</g>
<!-- 16 -->
<g id="node18" class="node">
<title>16</title>
<ellipse fill="none" stroke="black" cx="210" cy="-90" rx="18" ry="18"/>
</g>
<!-- 12&#45;&gt;16 -->
<g id="edge17" class="edge">
<title>12&#45;&gt;16</title>
<path fill="none" stroke="black" d="M166.67,-147.17C174.21,-137.39 184.48,-124.08 193.13,-112.87"/>
<polygon fill="black" stroke="black" points="196.02,-114.86 199.35,-104.8 190.47,-110.58 196.02,-114.86"/>
</g>
<!-- 13&#45;&gt;x -->
<g id="edge21" class="edge">
<title>13&#45;&gt;x</title>
<path fill="none" stroke="black" d="M62.49,-101.02C66.44,-103.5 70.79,-106.01 75,-108 173.46,-154.58 242.8,-120.4 295,-216 353.06,-322.35 272.31,-378.17 191,-468 177.45,-482.97 159.17,-496.65 144.69,-506.35"/>
<polygon fill="black" stroke="black" points="142.71,-503.47 136.24,-511.86 146.53,-509.33 142.71,-503.47"/>
</g>
<!-- 14&#45;&gt;7 -->
<g id="edge23" class="edge">
<title>14&#45;&gt;7</title>
<path fill="none" stroke="black" d="M92.77,-105.72C86.73,-116.05 79.22,-130.39 75,-144 60.91,-189.48 56.27,-245.03 54.74,-277.57"/>
<polygon fill="black" stroke="black" points="51.24,-277.54 54.34,-287.67 58.24,-277.82 51.24,-277.54"/>
</g>
<!-- 17 -->
<g id="node19" class="node">
<title>17</title>
<ellipse fill="none" stroke="black" cx="183" cy="-18" rx="18" ry="18"/>
</g>
<!-- 16&#45;&gt;17 -->
<g id="edge18" class="edge">
<title>16&#45;&gt;17</title>
<path fill="none" stroke="black" d="M203.74,-72.76C200.5,-64.37 196.47,-53.93 192.83,-44.5"/>
<polygon fill="black" stroke="black" points="196.09,-43.22 189.23,-35.15 189.56,-45.74 196.09,-43.22"/>
</g>
<!-- 18 -->
<g id="node20" class="node">
<title>18</title>
<ellipse fill="none" stroke="black" cx="237" cy="-18" rx="18" ry="18"/>
</g>
<!-- 16&#45;&gt;18 -->
<g id="edge19" class="edge">
<title>16&#45;&gt;18</title>
<path fill="none" stroke="black" d="M216.26,-72.76C219.5,-64.37 223.52,-53.93 227.16,-44.5"/>
<polygon fill="black" stroke="black" points="230.44,-45.74 230.77,-35.15 223.91,-43.22 230.44,-45.74"/>
</g>
<!-- 17&#45;&gt;7 -->
<g id="edge24" class="edge">
<title>17&#45;&gt;7</title>
<path fill="none" stroke="black" d="M164.76,-18.65C129.96,-19.08 54.61,-25.64 21,-72 -25.25,-135.79 16.91,-235.7 40.52,-281.1"/>
<polygon fill="black" stroke="black" points="37.58,-283.02 45.38,-290.18 43.75,-279.72 37.58,-283.02"/>
</g>
<!-- 18&#45;&gt;15 -->
<g id="edge25" class="edge">
<title>18&#45;&gt;15</title>
<path fill="none" stroke="black" d="M223.87,-30.34C211.22,-41.28 191.87,-58 177.06,-70.8"/>
<polygon fill="black" stroke="black" points="174.65,-68.25 169.37,-77.44 179.23,-73.55 174.65,-68.25"/>
</g>
</g>
</svg>
